<?xml version="1.0" encoding="UTF-8"?>
<svg xmlns="http://www.w3.org/2000/svg" xmlns:xlink="http://www.w3.org/1999/xlink"  viewBox="0 0 135 20" >
<g id="surface1">
<path style=" stroke:none;fill-rule:evenodd;fill:rgb(12.941176%,14.509804%,16.078431%);fill-opacity:1;" d="M 43.25 5.816406 L 46.621094 5.816406 L 46.621094 4.183594 L 38.007812 4.183594 L 38.007812 5.816406 L 41.378906 5.816406 L 41.378906 15.847656 L 43.25 15.847656 Z M 58.066406 14.226562 L 53.460938 14.226562 L 53.460938 10.566406 L 57.777344 10.566406 L 57.777344 8.964844 L 53.460938 8.964844 L 53.460938 5.792969 L 58.066406 5.792969 L 58.066406 4.183594 L 51.585938 4.183594 L 51.585938 15.847656 L 58.066406 15.847656 Z M 70.089844 11.308594 C 69.886719 10.898438 69.589844 10.539062 69.226562 10.261719 C 68.652344 9.855469 68.03125 9.519531 67.375 9.261719 C 66.839844 9.054688 66.320312 8.800781 65.824219 8.503906 C 65.574219 8.351562 65.363281 8.144531 65.203125 7.894531 C 65.074219 7.65625 65.007812 7.386719 65.015625 7.117188 C 65.003906 6.707031 65.175781 6.316406 65.488281 6.050781 C 65.882812 5.757812 66.375 5.617188 66.867188 5.652344 C 67.808594 5.683594 68.738281 5.90625 69.59375 6.304688 L 70.195312 4.75 C 69.167969 4.273438 68.050781 4.023438 66.917969 4.015625 C 65.9375 3.964844 64.96875 4.261719 64.183594 4.855469 C 63.5 5.417969 63.125 6.269531 63.164062 7.152344 C 63.144531 7.871094 63.371094 8.578125 63.808594 9.148438 C 64.40625 9.820312 65.167969 10.328125 66.015625 10.625 C 66.738281 10.875 67.410156 11.238281 68.019531 11.699219 C 68.332031 11.980469 68.511719 12.386719 68.503906 12.808594 C 68.523438 13.257812 68.324219 13.6875 67.976562 13.964844 C 67.492188 14.289062 66.914062 14.441406 66.335938 14.398438 C 65.78125 14.390625 65.230469 14.320312 64.691406 14.183594 C 64.117188 14.042969 63.558594 13.847656 63.027344 13.59375 L 63.027344 15.390625 C 64.027344 15.835938 65.117188 16.046875 66.210938 16.007812 C 67.296875 16.070312 68.375 15.757812 69.257812 15.121094 C 69.992188 14.527344 70.402344 13.621094 70.359375 12.679688 C 70.371094 12.207031 70.277344 11.738281 70.089844 11.308594 Z M 79.75 5.820312 L 83.117188 5.820312 L 83.117188 4.183594 L 74.503906 4.183594 L 74.503906 5.816406 L 77.875 5.816406 L 77.875 15.847656 L 79.75 15.847656 L 79.75 5.816406 Z M 92.042969 5.820312 L 95.414062 5.820312 L 95.414062 4.183594 L 86.800781 4.183594 L 86.800781 5.816406 L 90.171875 5.816406 L 90.171875 15.847656 L 92.042969 15.847656 L 92.042969 5.816406 Z M 109.480469 15.847656 L 105.191406 4.136719 L 103.152344 4.136719 L 98.867188 15.847656 L 100.84375 15.847656 L 101.964844 12.609375 L 106.34375 12.609375 L 107.488281 15.847656 Z M 102.511719 10.964844 L 103.546875 7.925781 C 103.796875 7.222656 104.003906 6.507812 104.164062 5.777344 C 104.21875 5.992188 104.3125 6.328125 104.449219 6.785156 C 104.589844 7.242188 104.699219 7.578125 104.777344 7.789062 L 105.851562 10.964844 Z M 120.535156 11.308594 C 120.332031 10.898438 120.039062 10.539062 119.671875 10.261719 C 119.101562 9.855469 118.480469 9.519531 117.824219 9.261719 C 117.285156 9.054688 116.765625 8.800781 116.269531 8.503906 C 116.019531 8.351562 115.808594 8.144531 115.652344 7.894531 C 115.519531 7.65625 115.457031 7.386719 115.464844 7.117188 C 115.449219 6.707031 115.621094 6.316406 115.933594 6.050781 C 116.332031 5.757812 116.820312 5.617188 117.3125 5.652344 C 118.257812 5.683594 119.183594 5.90625 120.039062 6.304688 L 120.640625 4.75 C 119.613281 4.273438 118.496094 4.023438 117.363281 4.015625 C 116.382812 3.964844 115.414062 4.261719 114.628906 4.855469 C 113.945312 5.417969 113.570312 6.269531 113.609375 7.152344 C 113.589844 7.871094 113.816406 8.578125 114.253906 9.148438 C 114.851562 9.820312 115.613281 10.328125 116.464844 10.625 C 117.183594 10.875 117.863281 11.238281 118.46875 11.703125 C 118.785156 11.984375 118.960938 12.386719 118.957031 12.8125 C 118.972656 13.257812 118.777344 13.6875 118.425781 13.96875 C 117.945312 14.292969 117.367188 14.445312 116.785156 14.398438 C 116.230469 14.394531 115.679688 14.320312 115.144531 14.183594 C 114.570312 14.046875 114.011719 13.847656 113.476562 13.59375 L 113.476562 15.394531 C 114.476562 15.839844 115.566406 16.050781 116.660156 16.007812 C 117.746094 16.070312 118.824219 15.757812 119.707031 15.121094 C 120.445312 14.53125 120.851562 13.621094 120.808594 12.679688 C 120.820312 12.207031 120.726562 11.738281 120.535156 11.308594 Z M 130.5625 9.300781 C 131.429688 8.285156 132.863281 6.578125 134.863281 4.1875 L 132.730469 4.1875 L 129.632812 7.910156 C 129.125 8.503906 128.617188 9.117188 128.105469 9.753906 L 128.105469 4.183594 L 126.230469 4.183594 L 126.230469 15.847656 L 128.105469 15.847656 L 128.105469 11.484375 L 129.210938 10.566406 L 132.808594 15.847656 L 134.980469 15.847656 Z M 130.5625 9.300781 "/>
<path style=" stroke:none;fill-rule:evenodd;fill:rgb(10.588235%,29.019608%,54.117647%);fill-opacity:1;" d="M 7 0 L 0 10 L 7 20 L 23 20 L 30 10 L 23 0 Z M 7 0 "/>
<path style=" stroke:none;fill-rule:evenodd;fill:rgb(100%,100%,100%);fill-opacity:1;" d="M 20 16 L 18 16 L 18 6 L 16 6 L 16 4 L 22 4 L 22 6 L 20 6 Z M 12 16 L 10 16 L 10 6 L 8 6 L 8 4 L 14 4 L 14 6 L 12 6 Z M 12 16 "/>
</g>
</svg>
