<?xml version="1.0" encoding="UTF-8"?>
<svg xmlns="http://www.w3.org/2000/svg" xmlns:xlink="http://www.w3.org/1999/xlink"  viewBox="0 0 429 362" version="1.1">
<defs>
<linearGradient id="linear0" gradientUnits="userSpaceOnUse" x1="0.499997" y1="0.99998" x2="0.499997" y2="0.0000240707" gradientTransform="matrix(350.773438,0,0,337.3125,78.191406,24.191406)">
<stop offset="0" style="stop-color:rgb(46.27451%,66.666667%,85.882353%);stop-opacity:1;"/>
<stop offset="1" style="stop-color:rgb(29.019608%,44.705882%,69.803922%);stop-opacity:1;"/>
</linearGradient>
<linearGradient id="linear1" gradientUnits="userSpaceOnUse" x1="0.000000000000000137" y1="0.499877" x2="1" y2="0.499877" gradientTransform="matrix(207.210938,0,0,160.496094,115.078125,158.515625)">
<stop offset="0" style="stop-color:rgb(16.470588%,79.215686%,100%);stop-opacity:1;"/>
<stop offset="1" style="stop-color:rgb(16.470588%,87.45098%,76.470588%);stop-opacity:1;"/>
</linearGradient>
<filter id="alpha" filterUnits="objectBoundingBox" x="0%" y="0%" width="100%" height="100%">
  <feColorMatrix type="matrix" in="SourceGraphic" values="0 0 0 0 1 0 0 0 0 1 0 0 0 0 1 0 0 0 1 0"/>
</filter>
<mask id="mask0">
  <g filter="url(#alpha)">
<rect x="0" y="0" width="429" height="362" style="fill:rgb(0%,0%,0%);fill-opacity:0.568627;stroke:none;"/>
  </g>
</mask>
<clipPath id="clip1">
  <rect x="0" y="0" width="429" height="362"/>
</clipPath>
<g id="surface5" clip-path="url(#clip1)">
<path style=" stroke:none;fill-rule:evenodd;fill:rgb(96.078431%,96.078431%,96.078431%);fill-opacity:1;" d="M 137.941406 184.140625 L 314.238281 298.429688 C 315.457031 296.699219 316.234375 294.699219 316.511719 292.601562 L 316.511719 191.851562 C 316.304688 189.324219 315.359375 186.914062 313.789062 184.921875 C 311.929688 182.722656 309.316406 181.296875 306.460938 180.921875 C 305.59375 180.832031 304.722656 180.796875 303.851562 180.808594 L 146.078125 180.808594 C 143.964844 180.855469 141.894531 181.453125 140.078125 182.539062 C 139.335938 183.03125 138.621094 183.566406 137.941406 184.140625 Z M 137.941406 184.140625 "/>
</g>
<linearGradient id="linear2" gradientUnits="userSpaceOnUse" x1="0" y1="-28.386951" x2="1" y2="-28.386951" gradientTransform="matrix(142.011719,0,0,10.5,163.789062,331.851562)">
<stop offset="0" style="stop-color:rgb(16.470588%,79.215686%,100%);stop-opacity:1;"/>
<stop offset="1" style="stop-color:rgb(16.470588%,87.45098%,76.470588%);stop-opacity:1;"/>
</linearGradient>
<linearGradient id="linear3" gradientUnits="userSpaceOnUse" x1="0" y1="0.500398" x2="0.999882" y2="0.500398" gradientTransform="matrix(241.828125,0,0,12.570312,123.171875,306.710938)">
<stop offset="0" style="stop-color:rgb(100%,100%,100%);stop-opacity:1;"/>
<stop offset="1" style="stop-color:rgb(96.862745%,96.862745%,97.254902%);stop-opacity:1;"/>
</linearGradient>
<linearGradient id="linear4" gradientUnits="userSpaceOnUse" x1="0" y1="-22.319809" x2="1" y2="-22.319809" gradientTransform="matrix(194.550781,0,0,12.570312,141.828125,319.28125)">
<stop offset="0" style="stop-color:rgb(100%,100%,100%);stop-opacity:1;"/>
<stop offset="1" style="stop-color:rgb(96.862745%,96.862745%,97.254902%);stop-opacity:1;"/>
</linearGradient>
<linearGradient id="linear5" gradientUnits="userSpaceOnUse" x1="-0.0000110556" y1="2.413268" x2="0.999861" y2="2.413268" gradientTransform="matrix(162.273438,0,0,124.027344,0.371094,1.285156)">
<stop offset="0" style="stop-color:rgb(16.470588%,79.215686%,100%);stop-opacity:1;"/>
<stop offset="1" style="stop-color:rgb(16.470588%,87.45098%,76.470588%);stop-opacity:1;"/>
</linearGradient>
<linearGradient id="linear6" gradientUnits="userSpaceOnUse" x1="-0.000094033" y1="5.705032" x2="0.999964" y2="5.705032" gradientTransform="matrix(29.796875,0,0,19.945312,116.683594,120.042969)">
<stop offset="0" style="stop-color:rgb(16.470588%,79.215686%,100%);stop-opacity:1;"/>
<stop offset="1" style="stop-color:rgb(16.470588%,87.45098%,76.470588%);stop-opacity:1;"/>
</linearGradient>
<linearGradient id="linear7" gradientUnits="userSpaceOnUse" x1="0.00353973" y1="7.75604" x2="1.005012" y2="7.75604" gradientTransform="matrix(9.96875,0,0,7.882812,145.460937,147.734375)">
<stop offset="0" style="stop-color:rgb(16.470588%,79.215686%,100%);stop-opacity:1;"/>
<stop offset="1" style="stop-color:rgb(16.470588%,87.45098%,76.470588%);stop-opacity:1;"/>
</linearGradient>
</defs>
<g id="surface1">
<path style=" stroke:none;fill-rule:evenodd;fill:url(#linear0);" d="M 117.160156 302.28125 C 117.160156 302.28125 29.230469 241.429688 117.160156 158.378906 C 205.089844 75.328125 307.238281 27 371.070312 24.191406 C 434.898438 21.378906 444.839844 174.550781 406.53125 275.28125 C 368.21875 376.011719 237.730469 393 117.160156 302.28125 Z M 117.160156 302.28125 "/>
<path style=" stroke:none;fill-rule:evenodd;fill:rgb(100%,79.607843%,61.176471%);fill-opacity:1;" d="M 312.800781 202.21875 C 312.800781 202.21875 354.03125 252.441406 302.898438 284.910156 L 294.898438 268.460938 C 294.898438 268.460938 312.550781 250.078125 299.46875 227.660156 Z M 312.800781 202.21875 "/>
<path style=" stroke:none;fill-rule:evenodd;fill:rgb(100%,79.607843%,61.176471%);fill-opacity:1;" d="M 130.148438 202.21875 C 130.148438 202.21875 88.921875 252.441406 140.050781 284.910156 L 148.050781 268.460938 C 148.050781 268.460938 130.398438 250.078125 143.480469 227.660156 Z M 130.148438 202.21875 "/>
<path style=" stroke:none;fill-rule:evenodd;fill:url(#linear1);" d="M 322.289062 212.839844 C 301.289062 171.050781 262.101562 164.839844 262.101562 164.839844 L 262.101562 165.101562 L 249.601562 162 C 223.214844 156.378906 195.851562 157.371094 169.941406 164.878906 C 169.941406 164.878906 131.601562 175.109375 115.078125 218.878906 L 139.078125 231.980469 C 137.078125 252.761719 137.589844 278.738281 142.820312 310.980469 C 155.148438 307.058594 169.121094 312.238281 181.949219 313.050781 C 197.191406 314.050781 210.839844 312.429688 225.851562 314.648438 C 253.121094 318.648438 280.949219 316.878906 308.429688 319.011719 C 308.808594 294.460938 307.699219 259.910156 300.921875 227.601562 Z M 322.289062 212.839844 "/>
<path style=" stroke:none;fill-rule:evenodd;fill:rgb(100%,79.607843%,61.176471%);fill-opacity:1;" d="M 267.878906 109.910156 C 267.28125 124.140625 263.730469 137.011719 242.378906 146.601562 C 242.378906 146.601562 231.378906 157.601562 234.621094 172.730469 C 237.859375 187.859375 196.519531 186.730469 202.691406 165.808594 C 208.859375 144.890625 198.621094 120.890625 191.121094 107.230469 C 183.621094 93.570312 186.738281 65 204 55.78125 C 210.769531 52.140625 227.628906 53.78125 238.628906 59.238281 C 257.128906 68.320312 268.75 89.289062 267.878906 109.910156 Z M 267.878906 109.910156 "/>
<path style=" stroke:none;fill-rule:evenodd;fill:rgb(100%,79.607843%,61.176471%);fill-opacity:1;" d="M 195.378906 95 C 192.183594 92.589844 188.09375 91.707031 184.191406 92.578125 C 178.011719 94.191406 176.941406 116.820312 191.410156 120.769531 C 205.878906 124.71875 200.699219 110.519531 200.699219 110.519531 Z M 195.378906 95 "/>
<path style=" stroke:none;fill-rule:evenodd;fill:rgb(9.803922%,9.803922%,9.803922%);fill-opacity:1;" d="M 268.628906 107.488281 C 268.054688 107.570312 267.472656 107.609375 266.890625 107.609375 C 265.75 107.621094 264.617188 107.441406 263.539062 107.070312 C 258.699219 109.488281 250.460938 112.140625 242.289062 107.898438 C 229.648438 101.320312 218.441406 100.351562 212.539062 103.230469 C 202.371094 108.230469 190.738281 105.511719 187.289062 89.839844 C 187.289062 89.839844 185.871094 102.308594 193.578125 108.839844 C 201.289062 115.371094 201.578125 125.691406 200.5 134.21875 C 199.421875 142.75 193.28125 152.21875 201.039062 163 C 208.800781 173.78125 221.46875 163 231.039062 165.570312 C 240.609375 168.140625 261.53125 170.761719 265.910156 153.441406 C 270.289062 136.121094 264.628906 129.640625 265.910156 122.441406 C 267 116.398438 269.390625 112.75 268.628906 107.488281 Z M 268.628906 107.488281 "/>
<path style=" stroke:none;fill-rule:evenodd;fill:rgb(80.784314%,24.313725%,24.313725%);fill-opacity:1;" d="M 238.789062 116 C 237.023438 114.519531 234.953125 113.4375 232.730469 112.828125 C 229.789062 112.28125 226.730469 112.828125 225.460938 116.46875 C 224.191406 120.109375 227.359375 123.46875 231.410156 126.570312 C 233.800781 128.300781 242.410156 131.46875 247.640625 130.03125 C 252.871094 128.589844 255.691406 127.160156 257.339844 124.089844 C 258.988281 121.019531 256.96875 117.160156 254.570312 115.851562 C 252.445312 114.808594 249.949219 114.871094 247.878906 116.019531 C 245.109375 117.800781 241.554688 117.792969 238.789062 116 Z M 238.789062 116 "/>
<path style=" stroke:none;fill-rule:evenodd;fill:rgb(100%,49.019608%,49.019608%);fill-opacity:1;" d="M 227.398438 122.898438 C 230.472656 121.914062 233.78125 121.964844 236.820312 123.050781 C 240.722656 124.171875 244.050781 126.742188 246.121094 130.238281 C 241.871094 130.527344 237.621094 129.722656 233.769531 127.898438 C 231.269531 126.78125 229.082031 125.0625 227.398438 122.898438 Z M 227.398438 122.898438 "/>
<path style=" stroke:none;fill-rule:evenodd;fill:rgb(9.803922%,9.803922%,9.803922%);fill-opacity:1;" d="M 231 87.691406 C 231 90.171875 230 92.179688 228.679688 92.179688 C 227.359375 92.179688 226.359375 90.179688 226.359375 87.691406 C 226.359375 85.199219 227.359375 83.230469 228.679688 83.230469 C 230 83.230469 231 85.21875 231 87.691406 Z M 231 87.691406 "/>
<path style=" stroke:none;fill-rule:evenodd;fill:rgb(9.803922%,9.803922%,9.803922%);fill-opacity:1;" d="M 256.28125 90.589844 C 256.28125 93.058594 255.28125 95.070312 253.960938 95.070312 C 252.640625 95.070312 251.640625 93.070312 251.640625 90.589844 C 251.640625 88.109375 252.640625 86.121094 253.960938 86.121094 C 255.28125 86.121094 256.28125 88.128906 256.28125 90.589844 Z M 256.28125 90.589844 "/>
<path style="fill:none;stroke-width:2;stroke-linecap:butt;stroke-linejoin:miter;stroke:rgb(11.372549%,11.372549%,10.588235%);stroke-opacity:1;stroke-miterlimit:4;" d="M 93.176532 34.723514 C 93.17725 42.602644 86.788369 48.99276 78.905362 48.993002 C 71.026232 48.993721 64.636116 42.60484 64.635874 34.721833 C 64.635156 26.842703 71.024037 20.452587 78.907044 20.452344 C 86.786173 20.451626 93.176289 26.840507 93.176532 34.723514 Z M 93.176532 34.723514 " transform="matrix(0.992546,-0.121869,0.121869,0.992546,175.356573,62.875048)"/>
<path style=" stroke:none;fill-rule:evenodd;fill:rgb(100%,38.431373%,32.156863%);fill-opacity:1;" d="M 244.058594 75.621094 L 251.601562 105.558594 L 236.070312 103.851562 Z M 244.058594 75.621094 "/>
<path style="fill:none;stroke-width:2;stroke-linecap:butt;stroke-linejoin:miter;stroke:rgb(11.372549%,11.372549%,10.588235%);stroke-opacity:1;stroke-miterlimit:4;" d="M 61.699219 32.410156 C 61.699219 40.292969 55.3125 46.679688 47.429688 46.679688 C 39.550781 46.679688 33.160156 40.292969 33.160156 32.410156 C 33.160156 24.527344 39.550781 18.140625 47.429688 18.140625 C 51.214844 18.140625 54.84375 19.644531 57.519531 22.320312 C 60.195312 24.996094 61.699219 28.625 61.699219 32.410156 Z M 61.699219 32.410156 " transform="matrix(1,0,0,1,179,53)"/>
<path style="fill:none;stroke-width:2;stroke-linecap:butt;stroke-linejoin:miter;stroke:rgb(11.372549%,11.372549%,10.588235%);stroke-opacity:1;stroke-miterlimit:4;" d="M 68.21875 25.261719 L 59.671875 25.261719 " transform="matrix(1,0,0,1,179,53)"/>
<path style="fill:none;stroke-width:2;stroke-linecap:butt;stroke-linejoin:miter;stroke:rgb(11.372549%,11.372549%,10.588235%);stroke-opacity:1;stroke-miterlimit:4;" d="M 33.609375 28.550781 L 7.011719 36.839844 " transform="matrix(1,0,0,1,179,53)"/>
<path style=" stroke:none;fill-rule:evenodd;fill:rgb(9.803922%,9.803922%,9.803922%);fill-opacity:1;" d="M 200.398438 111.640625 C 200.402344 114.445312 198.71875 116.972656 196.128906 118.050781 C 193.539062 119.125 190.558594 118.535156 188.574219 116.554688 C 186.589844 114.574219 185.996094 111.589844 187.066406 109 C 188.136719 106.410156 190.667969 104.71875 193.46875 104.71875 C 197.292969 104.71875 200.394531 107.816406 200.398438 111.640625 Z M 200.398438 111.640625 "/>
<path style=" stroke:none;fill-rule:evenodd;fill:rgb(9.803922%,9.803922%,9.803922%);fill-opacity:1;" d="M 202.761719 119.808594 C 202.761719 123.125 200.074219 125.808594 196.761719 125.808594 C 193.445312 125.808594 190.761719 123.125 190.761719 119.808594 C 190.761719 116.496094 193.445312 113.808594 196.761719 113.808594 C 200.074219 113.808594 202.761719 116.496094 202.761719 119.808594 Z M 202.761719 119.808594 "/>
<path style=" stroke:none;fill-rule:evenodd;fill:rgb(9.803922%,9.803922%,9.803922%);fill-opacity:1;" d="M 204.851562 129.289062 C 204.851562 132.570312 202.871094 135.527344 199.839844 136.785156 C 196.808594 138.039062 193.320312 137.34375 191 135.019531 C 188.683594 132.699219 187.992188 129.210938 189.25 126.179688 C 190.507812 123.148438 193.46875 121.175781 196.75 121.179688 C 198.898438 121.179688 200.960938 122.035156 202.480469 123.554688 C 204 125.078125 204.851562 127.140625 204.851562 129.289062 Z M 204.851562 129.289062 "/>
<path style=" stroke:none;fill-rule:evenodd;fill:rgb(9.803922%,9.803922%,9.803922%);fill-opacity:1;" d="M 204.851562 142.410156 C 204.855469 145.691406 202.878906 148.652344 199.847656 149.910156 C 196.816406 151.167969 193.324219 150.476562 191.003906 148.15625 C 188.683594 145.832031 187.992188 142.34375 189.25 139.3125 C 190.507812 136.28125 193.46875 134.304688 196.75 134.308594 C 201.222656 134.316406 204.84375 137.9375 204.851562 142.410156 Z M 204.851562 142.410156 "/>
<path style=" stroke:none;fill-rule:evenodd;fill:rgb(9.803922%,9.803922%,9.803922%);fill-opacity:1;" d="M 208.5 156.820312 C 208.503906 161.292969 204.886719 164.921875 200.414062 164.929688 C 195.941406 164.9375 192.308594 161.320312 192.300781 156.847656 C 192.289062 152.375 195.90625 148.742188 200.378906 148.730469 C 202.523438 148.726562 204.582031 149.570312 206.101562 151.085938 C 207.621094 152.601562 208.476562 154.65625 208.480469 156.800781 Z M 208.5 156.820312 "/>
<path style=" stroke:none;fill-rule:evenodd;fill:rgb(9.803922%,9.803922%,9.803922%);fill-opacity:1;" d="M 217.800781 165.71875 C 217.800781 170.195312 214.171875 173.820312 209.699219 173.820312 C 205.226562 173.820312 201.601562 170.195312 201.601562 165.71875 C 201.601562 161.246094 205.226562 157.621094 209.699219 157.621094 C 211.847656 157.617188 213.910156 158.46875 215.429688 159.988281 C 216.949219 161.507812 217.800781 163.570312 217.800781 165.71875 Z M 217.800781 165.71875 "/>
<path style=" stroke:none;fill-rule:evenodd;fill:rgb(9.803922%,9.803922%,9.803922%);fill-opacity:1;" d="M 233.269531 164.910156 C 233.25 169.355469 229.636719 172.945312 225.191406 172.933594 C 220.746094 172.925781 217.148438 169.320312 217.148438 164.875 C 217.148438 160.429688 220.746094 156.824219 225.191406 156.816406 C 229.636719 156.804688 233.25 160.394531 233.269531 164.839844 Z M 233.269531 164.910156 "/>
<path style=" stroke:none;fill-rule:evenodd;fill:rgb(9.803922%,9.803922%,9.803922%);fill-opacity:1;" d="M 248.519531 167.851562 C 248.523438 171.132812 246.550781 174.09375 243.519531 175.351562 C 240.488281 176.609375 236.996094 175.914062 234.675781 173.59375 C 232.355469 171.273438 231.660156 167.785156 232.917969 164.75 C 234.175781 161.71875 237.136719 159.746094 240.421875 159.75 C 244.894531 159.75 248.519531 163.375 248.519531 167.851562 Z M 248.519531 167.851562 "/>
<path style=" stroke:none;fill-rule:evenodd;fill:rgb(9.803922%,9.803922%,9.803922%);fill-opacity:1;" d="M 263.828125 163.089844 C 263.875 166.371094 261.9375 169.355469 258.921875 170.648438 C 255.910156 171.945312 252.410156 171.296875 250.0625 169.007812 C 247.710938 166.71875 246.972656 163.238281 248.1875 160.191406 C 249.40625 157.144531 252.339844 155.128906 255.621094 155.089844 L 255.730469 155.089844 C 260.164062 155.089844 263.773438 158.65625 263.828125 163.089844 Z M 263.828125 163.089844 "/>
<path style=" stroke:none;fill-rule:evenodd;fill:rgb(9.803922%,9.803922%,9.803922%);fill-opacity:1;" d="M 271.269531 151.660156 C 271.269531 156.132812 267.644531 159.761719 263.171875 159.761719 C 258.695312 159.761719 255.070312 156.132812 255.070312 151.660156 C 255.070312 147.1875 258.695312 143.558594 263.171875 143.558594 C 267.644531 143.558594 271.269531 147.1875 271.269531 151.660156 Z M 271.269531 151.660156 "/>
<path style=" stroke:none;fill-rule:evenodd;fill:rgb(9.803922%,9.803922%,9.803922%);fill-opacity:1;" d="M 276 137.390625 C 276.003906 140.671875 274.03125 143.632812 271 144.890625 C 267.964844 146.148438 264.476562 145.457031 262.15625 143.132812 C 259.835938 140.8125 259.140625 137.324219 260.398438 134.292969 C 261.65625 131.261719 264.617188 129.285156 267.898438 129.289062 C 272.363281 129.289062 275.984375 132.90625 275.988281 137.371094 Z M 276 137.390625 "/>
<path style=" stroke:none;fill-rule:evenodd;fill:rgb(9.803922%,9.803922%,9.803922%);fill-opacity:1;" d="M 274.929688 123.539062 C 274.929688 126.820312 272.953125 129.777344 269.921875 131.035156 C 266.890625 132.289062 263.402344 131.59375 261.082031 129.269531 C 258.761719 126.949219 258.070312 123.460938 259.332031 120.429688 C 260.589844 117.398438 263.550781 115.425781 266.828125 115.429688 C 271.304688 115.433594 274.929688 119.066406 274.929688 123.539062 Z M 274.929688 123.539062 "/>
<path style=" stroke:none;fill-rule:evenodd;fill:rgb(9.803922%,9.803922%,9.803922%);fill-opacity:1;" d="M 275.328125 113.738281 C 275.632812 118.214844 272.253906 122.085938 267.78125 122.390625 C 263.308594 122.699219 259.433594 119.320312 259.128906 114.847656 C 258.820312 110.375 262.195312 106.5 266.671875 106.191406 L 267.238281 106.191406 C 271.5625 106.042969 275.183594 109.429688 275.328125 113.75 Z M 275.328125 113.738281 "/>
<path style=" stroke:none;fill-rule:evenodd;fill:rgb(68.627451%,68.627451%,68.627451%);fill-opacity:1;" d="M 140.691406 298.46875 L 310.328125 298.46875 C 312.449219 298.46875 314.171875 300.1875 314.171875 302.308594 L 314.171875 302.890625 C 314.171875 305.011719 312.449219 306.730469 310.328125 306.730469 L 140.691406 306.730469 C 138.570312 306.730469 136.851562 305.011719 136.851562 302.890625 L 136.851562 302.308594 C 136.851562 300.1875 138.570312 298.46875 140.691406 298.46875 Z M 140.691406 298.46875 "/>
<path style=" stroke:none;fill-rule:evenodd;fill:rgb(84.705882%,84.705882%,84.705882%);fill-opacity:1;" d="M 146.988281 180.769531 L 304.078125 180.769531 C 310.972656 180.769531 316.558594 186.359375 316.558594 193.25 L 316.558594 290.609375 C 316.558594 297.503906 310.972656 303.089844 304.078125 303.089844 L 146.988281 303.089844 C 140.097656 303.089844 134.511719 297.503906 134.511719 290.609375 L 134.511719 193.25 C 134.511719 186.359375 140.097656 180.769531 146.988281 180.769531 Z M 146.988281 180.769531 "/>
<path style=" stroke:none;fill-rule:evenodd;fill:rgb(100%,100%,100%);fill-opacity:1;" d="M 237.230469 241.929688 C 237.238281 246.707031 234.367188 251.019531 229.957031 252.855469 C 225.542969 254.6875 220.460938 253.683594 217.078125 250.3125 C 213.695312 246.9375 212.679688 241.859375 214.503906 237.441406 C 216.328125 233.027344 220.632812 230.144531 225.410156 230.140625 C 228.542969 230.132812 231.546875 231.371094 233.765625 233.582031 C 235.984375 235.792969 237.230469 238.796875 237.230469 241.929688 Z M 237.230469 241.929688 "/>
<use xlink:href="#surface5" mask="url(#mask0)"/>
<path style=" stroke:none;fill-rule:evenodd;fill:rgb(9.803922%,9.803922%,9.803922%);fill-opacity:1;" d="M 300.609375 331.851562 C 298.402344 341.777344 295.179688 351.449219 291 360.71875 C 291 360.71875 250.050781 366.46875 193.699219 345.441406 C 193.699219 345.441406 167.378906 334.03125 163.789062 331.851562 Z M 300.609375 331.851562 "/>
<path style=" stroke:none;fill-rule:evenodd;fill:url(#linear2);" d="M 305.800781 331.851562 L 305.058594 337.621094 C 304.832031 339.429688 303.183594 340.71875 301.371094 340.5 L 301.230469 340.5 C 291.480469 338.761719 262.230469 334.691406 233.941406 339.648438 C 199.308594 345.710938 181.421875 340.511719 181.421875 340.511719 C 181.421875 340.511719 168.828125 334.558594 163.789062 331.851562 Z M 305.800781 331.851562 "/>
<path style=" stroke:none;fill-rule:evenodd;fill:url(#linear3);" d="M 123.171875 306.710938 L 365 306.710938 C 365 313.652344 359.371094 319.28125 352.429688 319.28125 L 141.828125 319.28125 C 135.597656 315.371094 129.375 311.179688 123.171875 306.710938 Z M 123.171875 306.710938 "/>
<path style=" stroke:none;fill-rule:evenodd;fill:url(#linear4);" d="M 141.828125 319.28125 L 336.378906 319.28125 C 336.378906 326.222656 330.753906 331.851562 323.808594 331.851562 L 163.6875 331.851562 C 156.40625 328.039062 149.113281 323.851562 141.828125 319.28125 Z M 141.828125 319.28125 "/>
<path style="fill-rule:evenodd;fill:rgb(100%,100%,100%);fill-opacity:1;stroke-width:3;stroke-linecap:butt;stroke-linejoin:miter;stroke:rgb(7.843137%,7.843137%,7.843137%);stroke-opacity:1;stroke-miterlimit:4;" d="M 95.171875 47.261719 C 95.171875 73.3125 74.050781 94.429688 48 94.429688 C 21.949219 94.429688 0.828125 73.3125 0.828125 47.261719 C 0.828125 21.207031 21.949219 0.0898438 48 0.0898438 C 74.050781 0.0898438 95.171875 21.207031 95.171875 47.261719 Z M 95.171875 47.261719 " transform="matrix(1,0,0,1,305,48)"/>
<path style="fill-rule:evenodd;fill:rgb(100%,100%,100%);fill-opacity:1;stroke-width:1;stroke-linecap:round;stroke-linejoin:round;stroke:rgb(7.843137%,7.843137%,7.843137%);stroke-opacity:1;stroke-miterlimit:4;" d="M 47.96875 17.171875 L 47.96875 47.261719 L 71.519531 47.261719 " transform="matrix(1,0,0,1,305,48)"/>
<path style="fill:none;stroke-width:1;stroke-linecap:round;stroke-linejoin:round;stroke:rgb(7.843137%,7.843137%,7.843137%);stroke-opacity:1;stroke-miterlimit:4;" d="M 47.96875 5.339844 L 47.96875 9.371094 " transform="matrix(1,0,0,1,305,48)"/>
<path style="fill:none;stroke-width:1;stroke-linecap:round;stroke-linejoin:round;stroke:rgb(7.843137%,7.843137%,7.843137%);stroke-opacity:1;stroke-miterlimit:4;" d="M 62.21875 7.828125 L 60.859375 11.621094 " transform="matrix(1,0,0,1,305,48)"/>
<path style="fill:none;stroke-width:1;stroke-linecap:round;stroke-linejoin:round;stroke:rgb(7.843137%,7.843137%,7.843137%);stroke-opacity:1;stroke-miterlimit:4;" d="M 74.800781 15.039062 L 72.199219 18.128906 " transform="matrix(1,0,0,1,305,48)"/>
<path style="fill:none;stroke-width:1;stroke-linecap:round;stroke-linejoin:round;stroke:rgb(7.843137%,7.843137%,7.843137%);stroke-opacity:1;stroke-miterlimit:4;" d="M 84.148438 26.070312 L 80.671875 28.109375 " transform="matrix(1,0,0,1,305,48)"/>
<path style="fill:none;stroke-width:1;stroke-linecap:round;stroke-linejoin:round;stroke:rgb(7.843137%,7.843137%,7.843137%);stroke-opacity:1;stroke-miterlimit:4;" d="M 89.199219 39.621094 L 85.21875 40.371094 " transform="matrix(1,0,0,1,305,48)"/>
<path style="fill:none;stroke-width:1;stroke-linecap:round;stroke-linejoin:round;stroke:rgb(7.843137%,7.843137%,7.843137%);stroke-opacity:1;stroke-miterlimit:4;" d="M 89.339844 54.101562 L 85.339844 53.441406 " transform="matrix(1,0,0,1,305,48)"/>
<path style="fill:none;stroke-width:1;stroke-linecap:round;stroke-linejoin:round;stroke:rgb(7.843137%,7.843137%,7.843137%);stroke-opacity:1;stroke-miterlimit:4;" d="M 84.550781 67.761719 L 81.011719 65.789062 " transform="matrix(1,0,0,1,305,48)"/>
<path style="fill:none;stroke-width:1;stroke-linecap:round;stroke-linejoin:round;stroke:rgb(7.843137%,7.843137%,7.843137%);stroke-opacity:1;stroke-miterlimit:4;" d="M 75.390625 78.96875 L 72.75 75.921875 " transform="matrix(1,0,0,1,305,48)"/>
<path style="fill:none;stroke-width:1;stroke-linecap:round;stroke-linejoin:round;stroke:rgb(7.843137%,7.843137%,7.843137%);stroke-opacity:1;stroke-miterlimit:4;" d="M 62.96875 86.398438 L 61.53125 82.621094 " transform="matrix(1,0,0,1,305,48)"/>
<path style="fill:none;stroke-width:1;stroke-linecap:round;stroke-linejoin:round;stroke:rgb(7.843137%,7.843137%,7.843137%);stroke-opacity:1;stroke-miterlimit:4;" d="M 48.769531 89.171875 L 48.679688 85.128906 " transform="matrix(1,0,0,1,305,48)"/>
<path style="fill:none;stroke-width:1;stroke-linecap:round;stroke-linejoin:round;stroke:rgb(7.843137%,7.843137%,7.843137%);stroke-opacity:1;stroke-miterlimit:4;" d="M 34.46875 86.929688 L 35.769531 83.109375 " transform="matrix(1,0,0,1,305,48)"/>
<path style="fill:none;stroke-width:1;stroke-linecap:round;stroke-linejoin:round;stroke:rgb(7.843137%,7.843137%,7.843137%);stroke-opacity:1;stroke-miterlimit:4;" d="M 21.769531 79.96875 L 24.300781 76.820312 " transform="matrix(1,0,0,1,305,48)"/>
<path style="fill:none;stroke-width:1;stroke-linecap:round;stroke-linejoin:round;stroke:rgb(7.843137%,7.843137%,7.843137%);stroke-opacity:1;stroke-miterlimit:4;" d="M 12.21875 69.109375 L 15.660156 67 " transform="matrix(1,0,0,1,305,48)"/>
<path style="fill:none;stroke-width:1;stroke-linecap:round;stroke-linejoin:round;stroke:rgb(7.843137%,7.843137%,7.843137%);stroke-opacity:1;stroke-miterlimit:4;" d="M 6.898438 55.640625 L 10.871094 54.851562 " transform="matrix(1,0,0,1,305,48)"/>
<path style="fill:none;stroke-width:1;stroke-linecap:round;stroke-linejoin:round;stroke:rgb(7.843137%,7.843137%,7.843137%);stroke-opacity:1;stroke-miterlimit:4;" d="M 6.5 41.179688 L 10.5 41.769531 " transform="matrix(1,0,0,1,305,48)"/>
<path style="fill:none;stroke-width:1;stroke-linecap:round;stroke-linejoin:round;stroke:rgb(7.843137%,7.843137%,7.843137%);stroke-opacity:1;stroke-miterlimit:4;" d="M 11.039062 27.429688 L 14.609375 29.339844 " transform="matrix(1,0,0,1,305,48)"/>
<path style="fill:none;stroke-width:1;stroke-linecap:round;stroke-linejoin:round;stroke:rgb(7.843137%,7.843137%,7.843137%);stroke-opacity:1;stroke-miterlimit:4;" d="M 19.96875 16.058594 L 22.671875 19.070312 " transform="matrix(1,0,0,1,305,48)"/>
<path style="fill:none;stroke-width:1;stroke-linecap:round;stroke-linejoin:round;stroke:rgb(7.843137%,7.843137%,7.843137%);stroke-opacity:1;stroke-miterlimit:4;" d="M 32.25 8.390625 L 33.769531 12.140625 " transform="matrix(1,0,0,1,305,48)"/>
<path style=" stroke:none;fill-rule:evenodd;fill:url(#linear5);" d="M 75.601562 17.078125 C 70.082031 17.796875 64.617188 15.429688 61.371094 10.910156 C 58.480469 7 52.609375 1.941406 43.390625 7 C 29.539062 14.578125 27.308594 22.570312 13.460938 25.300781 C -0.390625 28.03125 -3.691406 38.710938 4.210938 46.761719 C 12.109375 54.808594 13.460938 63.761719 9.398438 70.878906 C 5.339844 78 3.128906 96.351562 17.320312 97.679688 C 31.511719 99.011719 39.828125 96.351562 43.839844 107.519531 C 47.851562 118.691406 63.839844 132.578125 83.339844 120.921875 C 102.839844 109.261719 122.269531 120.460938 129.660156 119.089844 C 133.632812 118.390625 137.167969 116.144531 139.484375 112.839844 C 141.796875 109.53125 142.703125 105.441406 142 101.46875 C 142 101.148438 141.878906 100.839844 141.808594 100.46875 C 139.808594 90.339844 143.160156 80.210938 150.578125 75.46875 C 150.578125 75.46875 159.710938 72.878906 161.929688 61.359375 C 164.148438 49.839844 162.269531 37.359375 145.109375 31.539062 C 127.949219 25.71875 132.710938 12.539062 117.601562 4.839844 C 102.488281 -2.859375 91.601562 2.421875 87.378906 7.398438 C 84 11.359375 81.390625 16.230469 75.601562 17.078125 Z M 75.601562 17.078125 "/>
<path style=" stroke:none;fill-rule:evenodd;fill:url(#linear6);" d="M 130.71875 122 C 129.414062 126 125.824219 128.816406 121.628906 129.128906 C 114.289062 129.839844 114.980469 139.988281 124.070312 138.589844 C 133.160156 137.191406 135.621094 139.640625 138.601562 139.988281 C 141.578125 140.339844 146.109375 139.449219 146.480469 133.988281 C 146.851562 128.53125 142.269531 128.921875 139.121094 128.800781 C 135.96875 128.679688 138.949219 122.859375 137.019531 121.109375 C 136.199219 120.371094 135.117188 119.988281 134.011719 120.042969 C 132.90625 120.101562 131.871094 120.597656 131.128906 121.421875 C 130.976562 121.601562 130.839844 121.796875 130.71875 122 Z M 130.71875 122 "/>
<path style=" stroke:none;fill-rule:evenodd;fill:url(#linear7);" d="M 152.050781 147.941406 C 150.730469 147.03125 149.011719 146.953125 147.613281 147.734375 C 146.214844 148.515625 145.378906 150.019531 145.460938 151.621094 L 145.460938 152.058594 C 145.628906 157.25 149.988281 155.210938 152.160156 155.519531 C 154.328125 155.828125 155.429688 153.371094 155.429688 151.300781 C 155.429688 149.230469 153.660156 149.488281 152.378906 148.160156 Z M 152.050781 147.941406 "/>
<path style=" stroke:none;fill-rule:nonzero;fill:rgb(100%,100%,100%);fill-opacity:1;" d="M 84.109375 89.890625 L 88.75 89.699219 L 88.429688 82.261719 L 83.589844 82.480469 C 83.078125 80.789062 82.296875 79.191406 81.28125 77.75 L 84.5 74.390625 L 79.140625 69.199219 L 75.78125 72.660156 C 74.238281 71.792969 72.574219 71.175781 70.839844 70.828125 L 70.839844 66.269531 L 63.390625 66.269531 L 63.390625 71.140625 C 61.308594 71.671875 59.351562 72.605469 57.628906 73.890625 L 54.171875 70.578125 L 49.089844 76 L 52.828125 79.460938 C 51.75 81.539062 51.109375 83.816406 50.941406 86.148438 L 46.339844 86.75 L 47.289062 94.128906 L 52.101562 93.511719 C 52.757812 95.148438 53.675781 96.675781 54.808594 98.03125 L 51.878906 101.640625 L 57.679688 106.300781 L 60.609375 102.53125 C 62.210938 103.269531 63.925781 103.742188 65.679688 103.929688 L 66.078125 108.550781 L 73.488281 107.910156 L 73.128906 103.101562 C 74.785156 102.515625 76.335938 101.675781 77.730469 100.609375 L 81.199219 103.671875 L 86.109375 98.078125 L 82.460938 94.871094 C 83.269531 93.308594 83.824219 91.625 84.109375 89.890625 Z M 67.390625 93.53125 C 63.5625 93.53125 60.460938 90.425781 60.460938 86.601562 C 60.460938 82.773438 63.5625 79.671875 67.390625 79.671875 C 71.21875 79.671875 74.320312 82.773438 74.320312 86.601562 C 74.324219 88.4375 73.59375 90.203125 72.292969 91.503906 C 70.992188 92.804688 69.230469 93.53125 67.390625 93.53125 Z M 67.390625 93.53125 "/>
<path style=" stroke:none;fill-rule:nonzero;fill:rgb(100%,100%,100%);fill-opacity:1;" d="M 126.578125 69.621094 L 131.238281 69.421875 L 130.929688 62 L 126.078125 62.21875 C 125.570312 60.535156 124.792969 58.941406 123.78125 57.5 L 127 54.121094 L 121.609375 48.921875 L 118.269531 52.390625 C 116.730469 51.519531 115.0625 50.898438 113.328125 50.550781 L 113.328125 46 L 105.890625 46 L 105.890625 50.859375 C 103.804688 51.394531 101.84375 52.332031 100.121094 53.621094 L 96.660156 50.308594 L 91.601562 55.761719 L 95.339844 59.230469 C 94.25 61.300781 93.609375 63.574219 93.460938 65.910156 L 88.828125 66.519531 L 89.828125 73.890625 L 94.648438 73.269531 C 95.296875 74.910156 96.203125 76.433594 97.328125 77.789062 L 94.421875 81.410156 L 100.21875 86.070312 L 103.21875 82.359375 C 104.820312 83.097656 106.527344 83.570312 108.28125 83.761719 L 108.679688 88.390625 L 116.089844 87.679688 L 115.660156 82.839844 C 117.320312 82.257812 118.882812 81.417969 120.28125 80.351562 L 123.738281 83.421875 L 128.660156 77.820312 L 125.011719 74.621094 C 125.796875 73.046875 126.328125 71.359375 126.578125 69.621094 Z M 109.890625 73.25 C 107.085938 73.25 104.558594 71.558594 103.488281 68.96875 C 102.414062 66.378906 103.007812 63.398438 104.992188 61.417969 C 106.976562 59.433594 109.960938 58.84375 112.550781 59.921875 C 115.136719 60.996094 116.824219 63.527344 116.820312 66.328125 C 116.820312 68.167969 116.089844 69.929688 114.789062 71.226562 C 113.488281 72.523438 111.726562 73.253906 109.890625 73.25 Z M 109.890625 73.25 "/>
<path style=" stroke:none;fill-rule:nonzero;fill:rgb(100%,100%,100%);fill-opacity:1;" d="M 88.191406 47.730469 L 92.820312 47.089844 L 91.820312 39.710938 L 87.019531 40.390625 C 86.34375 38.765625 85.414062 37.257812 84.269531 35.921875 L 87.140625 32.261719 L 81.289062 27.660156 L 78.289062 31.488281 C 76.675781 30.773438 74.957031 30.3125 73.199219 30.128906 L 72.769531 25.53125 L 65.359375 26.261719 L 65.839844 31.089844 C 63.8125 31.820312 61.945312 32.941406 60.351562 34.390625 L 56.511719 31.449219 L 52 37.339844 L 56 40.441406 C 55.097656 42.632812 54.679688 44.992188 54.769531 47.359375 L 50.199219 48.359375 L 52 55.609375 L 56.730469 54.519531 C 57.542969 56.085938 58.597656 57.507812 59.859375 58.738281 L 57.308594 62.640625 L 63.5 66.78125 L 66.160156 62.710938 C 67.832031 63.289062 69.589844 63.59375 71.359375 63.609375 L 72.210938 68.179688 L 79.5 66.78125 L 78.558594 62 C 80.15625 61.257812 81.625 60.269531 82.910156 59.070312 L 86.699219 61.769531 L 91.03125 55.769531 L 87.03125 52.960938 C 87.707031 51.292969 88.101562 49.527344 88.191406 47.730469 Z M 71.929688 52.921875 C 69.140625 53.207031 66.453125 51.789062 65.121094 49.324219 C 63.785156 46.855469 64.070312 43.828125 65.839844 41.65625 C 67.609375 39.480469 70.511719 38.585938 73.199219 39.386719 C 75.886719 40.1875 77.824219 42.53125 78.109375 45.320312 L 78.109375 45.390625 C 78.46875 49.171875 75.710938 52.535156 71.929688 52.921875 Z M 71.929688 52.921875 "/>
</g>
</svg>
